<?xml version="1.0" encoding="UTF-8"?>
<!DOCTYPE svg PUBLIC "-//W3C//DTD SVG 1.1//EN" "http://www.w3.org/Graphics/SVG/1.1/DTD/svg11.dtd">
<svg version="1.1" xmlns="http://www.w3.org/2000/svg" xmlns:xlink="http://www.w3.org/1999/xlink" x="0" y="0" width="224.757" height="116.342" viewBox="0, 0, 224.757, 116.342">
  <g id="layer1">
    <path d="M0,-0 L224.757,-0 L224.757,116.342 L0,116.342 L0,-0 z" fill="#000000"/>
    <path d="M104.147,97.364 L104.147,97.364 C108.439,97.346 112.893,97.401 116.304,97.551 L124.238,97.9 L125.48,99.288 C128.468,102.625 129.179,103.685 129.014,104.55 C128.922,105.032 128.226,105.907 127.386,106.596 L125.919,107.799 L121.516,107.976 L121.516,107.975 C115.6,108.212 93.531,108.22 88.336,107.986 L84.17,107.799 L83.074,106.531 C82.472,105.833 81.979,105.087 81.979,104.872 C81.979,104.185 87.765,98.974 89.626,97.986 C90.292,97.633 96.994,97.395 104.147,97.364 z" fill="#FF0000" id="path4605-6"/>
    <path d="M137.082,59.818 L137.082,59.818 C137.196,59.815 137.291,59.836 137.364,59.882 C137.545,59.993 138.414,60.951 139.296,62.011 C141.121,64.204 141.056,63.246 139.931,71.369 C137.278,90.521 135.941,98.689 135.298,99.671 C134.98,100.156 134.045,100.982 133.22,101.505 C132.395,102.028 131.619,102.456 131.495,102.456 C131.371,102.456 130.145,101.254 128.77,99.785 L126.27,97.113 L126.439,95.008 C126.683,91.977 127.36,86.793 129.402,72.341 L130.478,64.731 L132.614,62.747 C134.529,60.968 136.283,59.832 137.082,59.818 z" fill="#FF0000" fill-opacity="0.157" id="path4603-7"/>
    <path d="M88.289,59.712 C88.902,59.712 91.668,62.341 92.302,63.525 C92.833,64.516 92.035,71.152 89.76,84.646 C89.595,85.626 89.297,87.593 89.097,89.018 C88.897,90.442 88.504,92.612 88.224,93.84 C87.65,96.358 87.132,96.993 82.845,100.432 C81.457,101.545 80.139,102.456 79.916,102.456 C79.451,102.456 77.945,100.915 77.701,100.189 C77.532,99.688 78.021,94.916 78.88,88.694 C81.187,71.969 81.944,66.773 82.277,65.379 C82.582,64.098 83.082,63.543 86.384,60.811 C87.115,60.207 87.972,59.712 88.289,59.712 z" fill="#FF0000" id="path4601-5"/>
    <path d="M96.673,52.426 L113.364,52.5 C129.063,52.57 130.104,52.61 130.87,53.177 C132.047,54.047 134.11,56.853 134.112,57.586 C134.114,58.232 130.836,61.541 129.095,62.652 C128.17,63.242 127.311,63.272 111.103,63.273 C97.98,63.274 93.965,63.181 93.563,62.869 C92.509,62.05 90.075,58.924 90.075,58.39 C90.075,57.775 93.344,54.623 95.364,53.29 z" fill="#FF0000" id="path4599-3"/>
    <path d="M144.946,13.73 C145.338,13.73 146.011,14.107 146.443,14.568 C147.138,15.311 147.222,15.673 147.169,17.726 C147.116,19.767 146.855,22.015 145.774,29.759 C144.278,40.47 143.779,43.942 143.514,45.464 C143.343,46.444 143.111,47.972 142.999,48.86 C142.7,51.215 142.141,52.053 139.425,54.212 C138.083,55.278 136.809,56.15 136.593,56.15 C135.876,56.15 134.878,55.234 133.643,53.44 L132.421,51.665 L132.801,48.808 C133.009,47.236 133.384,44.493 133.634,42.712 C133.884,40.931 134.391,37.142 134.76,34.292 C135.129,31.443 135.75,27.09 136.141,24.62 L136.85,20.129 L138.316,18.741 C141.108,16.095 144.238,13.73 144.946,13.73 z" fill="#FF0000" fill-opacity="0.157" id="path4597-5"/>
    <path d="M93.366,13.582 C94.023,13.63 94.773,14.35 96.676,16.364 L98.905,18.724 L98.699,21.627 C98.586,23.224 98.356,25.416 98.189,26.497 C98.021,27.579 97.726,29.629 97.533,31.054 C97.339,32.479 97.039,34.519 96.865,35.588 C96.691,36.656 96.253,39.425 95.892,41.74 C95.53,44.055 95.085,46.884 94.902,48.025 C94.395,51.202 93.707,52.165 90.082,54.774 C89.277,55.353 88.415,55.826 88.164,55.826 C87.634,55.826 85.347,53.445 84.743,52.264 C84.398,51.588 84.455,50.494 85.089,45.626 C85.507,42.42 86.002,38.559 86.19,37.045 C86.377,35.531 86.742,32.981 87.001,31.378 C87.26,29.775 87.839,25.925 88.287,22.822 C89.231,16.288 89.642,15.399 92.425,13.875 C92.786,13.678 93.066,13.56 93.366,13.582 z" fill="#FF0000" fill-opacity="0.157" id="path4595-6"/>
    <path d="M114.658,8.005 C117.872,8.019 121.542,8.064 125.652,8.14 L140.344,8.412 L140.953,9.209 C141.288,9.647 141.707,10.182 141.885,10.397 C142.624,11.288 142.134,12.097 139.376,14.538 C137.818,15.917 135.999,17.392 135.335,17.816 L134.127,18.587 L118.172,18.554 C109.397,18.535 101.71,18.402 101.09,18.256 C100.469,18.11 99.614,17.578 99.19,17.074 C98.766,16.571 97.89,15.576 97.242,14.863 C95.94,13.43 95.285,12.454 95.267,11.922 C95.252,11.449 97.479,9.24 98.514,8.702 C99.483,8.198 105.016,7.963 114.658,8.005 z" fill="#FF0000" fill-opacity="0.157" id="path3765-2"/>
    <path d="M173.722,97.457 L173.722,97.457 C178.014,97.438 182.469,97.494 185.879,97.644 L193.813,97.993 L195.055,99.38 C198.043,102.717 198.755,103.777 198.589,104.642 C198.497,105.125 197.801,105.999 196.961,106.688 L195.494,107.892 L191.091,108.068 L191.091,108.068 C185.175,108.304 163.106,108.312 157.911,108.079 L153.745,107.892 L152.649,106.623 C152.047,105.926 151.554,105.179 151.554,104.965 C151.554,104.277 157.34,99.067 159.201,98.079 C159.867,97.725 166.569,97.488 173.722,97.457 z" fill="#FF0000" id="path4605-1"/>
    <path d="M206.657,59.91 L206.657,59.91 C206.772,59.908 206.867,59.929 206.939,59.974 C207.12,60.086 207.989,61.044 208.871,62.104 C210.696,64.297 210.631,63.338 209.506,71.462 C206.854,90.614 205.517,98.781 204.873,99.763 C204.555,100.249 203.62,101.074 202.795,101.597 C201.97,102.12 201.194,102.549 201.07,102.549 C200.946,102.549 199.721,101.346 198.346,99.877 L195.845,97.206 L196.014,95.101 C196.258,92.07 196.935,86.885 198.977,72.433 L200.053,64.824 L202.189,62.84 C204.104,61.06 205.858,59.925 206.657,59.91 z" fill="#FF0000" id="path4603-2"/>
    <path d="M157.865,59.805 C158.477,59.805 161.244,62.433 161.877,63.618 C162.408,64.609 161.61,71.244 159.336,84.739 C159.171,85.718 158.872,87.685 158.672,89.11 C158.472,90.535 158.079,92.705 157.799,93.933 C157.225,96.451 156.707,97.086 152.42,100.525 C151.032,101.638 149.714,102.549 149.491,102.549 C149.026,102.549 147.52,101.008 147.276,100.282 C147.107,99.78 147.596,95.008 148.455,88.786 C150.762,72.062 151.519,66.865 151.852,65.471 C152.158,64.191 152.657,63.635 155.959,60.904 C156.69,60.299 157.547,59.805 157.865,59.805 z" fill="#FF0000" id="path4601-7"/>
    <path d="M166.248,52.519 L182.94,52.593 C198.638,52.662 199.679,52.703 200.445,53.269 C201.623,54.139 203.685,56.945 203.687,57.679 C203.687,58.324 200.411,61.634 198.67,62.744 C197.745,63.334 196.886,63.364 180.679,63.365 C167.555,63.366 163.54,63.274 163.139,62.962 C162.084,62.142 159.65,59.017 159.65,58.483 C159.65,57.868 162.919,54.716 164.939,53.383 z" fill="#FF0000" fill-opacity="0.157" id="path4599-0"/>
    <path d="M214.521,13.822 C214.913,13.822 215.587,14.2 216.018,14.661 C216.713,15.403 216.797,15.766 216.744,17.818 C216.691,19.86 216.431,22.108 215.349,29.851 C213.854,40.562 213.354,44.034 213.089,45.557 C212.918,46.536 212.686,48.064 212.574,48.952 C212.276,51.308 211.716,52.146 209,54.304 C207.658,55.37 206.384,56.243 206.168,56.243 C205.451,56.243 204.454,55.326 203.218,53.532 L201.996,51.758 L202.376,48.9 C202.584,47.328 202.959,44.585 203.209,42.804 C203.459,41.023 203.966,37.234 204.335,34.385 C204.704,31.535 205.325,27.183 205.716,24.713 L206.425,20.222 L207.891,18.833 C210.683,16.187 213.813,13.822 214.521,13.822 z" fill="#FF0000" id="path4597-9"/>
    <path d="M162.941,13.674 C163.598,13.722 164.348,14.442 166.251,16.457 L168.48,18.816 L168.274,21.72 C168.161,23.317 167.931,25.508 167.764,26.59 C167.597,27.671 167.301,29.722 167.108,31.147 C166.914,32.571 166.614,34.611 166.44,35.68 C166.266,36.749 165.828,39.517 165.467,41.833 C165.105,44.148 164.66,46.976 164.477,48.118 C163.97,51.294 163.282,52.258 159.657,54.866 C158.853,55.445 157.99,55.919 157.739,55.919 C157.209,55.919 154.922,53.538 154.318,52.357 C153.973,51.681 154.03,50.587 154.664,45.718 C155.082,42.513 155.577,38.651 155.765,37.137 C155.952,35.623 156.317,33.073 156.576,31.47 C156.835,29.868 157.414,26.017 157.862,22.915 C158.806,16.38 159.217,15.491 162,13.968 C162.361,13.77 162.642,13.653 162.941,13.674 z" fill="#FF0000" id="path4595-3"/>
    <path d="M184.233,8.097 C187.447,8.111 191.117,8.157 195.228,8.233 L209.919,8.505 L210.528,9.302 C210.863,9.74 211.282,10.274 211.46,10.489 C212.199,11.381 211.709,12.19 208.951,14.631 C207.393,16.01 205.574,17.485 204.91,17.909 L203.702,18.68 L187.747,18.646 C178.973,18.628 171.285,18.494 170.665,18.348 C170.044,18.202 169.19,17.671 168.766,17.167 C168.342,16.663 167.465,15.668 166.818,14.956 C165.515,13.522 164.86,12.547 164.842,12.014 C164.827,11.542 167.055,9.333 168.089,8.795 C169.058,8.291 174.591,8.055 184.233,8.097 z" fill="#FF0000" id="path3765-6"/>
    <path d="M34.479,97.549 L34.479,97.55 C38.771,97.531 43.226,97.586 46.636,97.736 L54.57,98.085 L55.812,99.473 C58.8,102.81 59.512,103.87 59.346,104.735 C59.254,105.217 58.558,106.092 57.718,106.781 L56.252,107.984 L51.849,108.161 L51.849,108.16 C45.932,108.397 23.863,108.405 18.669,108.171 L14.502,107.984 L13.406,106.716 C12.804,106.018 12.312,105.272 12.312,105.057 C12.312,104.37 18.097,99.16 19.958,98.172 C20.624,97.818 27.326,97.58 34.479,97.549 z" fill="#FF0000" id="path4605-62"/>
    <path d="M67.415,60.003 L67.415,60.003 C67.529,60 67.624,60.022 67.697,60.067 C67.877,60.178 68.746,61.136 69.628,62.196 C71.453,64.389 71.388,63.431 70.263,71.555 C67.611,90.706 66.274,98.874 65.63,99.856 C65.312,100.341 64.377,101.167 63.552,101.69 C62.727,102.213 61.951,102.641 61.827,102.641 C61.704,102.641 60.478,101.439 59.103,99.97 L56.603,97.298 L56.772,95.193 C57.015,92.162 57.692,86.978 59.735,72.526 L60.81,64.916 L62.946,62.932 C64.862,61.153 66.615,60.017 67.415,60.003 z" fill="#FF0000" fill-opacity="0.157" id="path4603-6"/>
    <path d="M18.622,59.897 C19.234,59.897 22.001,62.526 22.635,63.71 C23.165,64.701 22.367,71.337 20.093,84.831 C19.928,85.811 19.629,87.778 19.429,89.203 C19.23,90.627 18.837,92.798 18.557,94.025 C17.982,96.543 17.464,97.178 13.177,100.617 C11.789,101.73 10.471,102.641 10.248,102.641 C9.783,102.641 8.278,101.1 8.033,100.374 C7.864,99.873 8.354,95.101 9.212,88.879 C11.519,72.154 12.276,66.958 12.609,65.564 C12.915,64.283 13.414,63.728 16.716,60.996 C17.447,60.392 18.305,59.897 18.622,59.897 z" fill="#FF0000" id="path4601-1"/>
    <path d="M27.006,52.611 L43.697,52.685 C59.395,52.755 60.436,52.795 61.203,53.362 C62.38,54.232 64.442,57.038 64.445,57.771 C64.446,58.417 61.168,61.727 59.427,62.837 C58.502,63.427 57.643,63.457 41.436,63.458 C28.312,63.459 24.297,63.366 23.896,63.054 C22.841,62.235 20.407,59.11 20.407,58.575 C20.407,57.96 23.676,54.808 25.696,53.475 z" fill="#FF0000" fill-opacity="0.157" id="path4599-8"/>
    <path d="M75.279,13.915 C75.67,13.915 76.344,14.292 76.776,14.754 C77.471,15.496 77.554,15.858 77.501,17.911 C77.448,19.952 77.188,22.2 76.106,29.944 C74.611,40.655 74.111,44.127 73.846,45.649 C73.676,46.629 73.444,48.157 73.331,49.045 C73.033,51.4 72.473,52.238 69.757,54.397 C68.416,55.463 67.142,56.335 66.926,56.335 C66.208,56.335 65.211,55.419 63.975,53.625 L62.753,51.85 L63.133,48.993 C63.342,47.421 63.717,44.678 63.966,42.897 C64.216,41.116 64.723,37.327 65.092,34.477 C65.462,31.628 66.083,27.275 66.473,24.805 L67.182,20.314 L68.648,18.926 C71.44,16.28 74.57,13.915 75.279,13.915 z" fill="#FF0000" fill-opacity="0.157" id="path4597-7"/>
    <path d="M23.698,13.767 C24.356,13.815 25.105,14.535 27.008,16.549 L29.238,18.909 L29.031,21.812 C28.918,23.409 28.688,25.601 28.521,26.682 C28.354,27.764 28.059,29.814 27.865,31.239 C27.671,32.664 27.371,34.704 27.197,35.773 C27.023,36.841 26.585,39.61 26.224,41.925 C25.862,44.24 25.417,47.069 25.235,48.211 C24.727,51.387 24.039,52.351 20.414,54.959 C19.61,55.538 18.747,56.011 18.497,56.011 C17.966,56.011 15.679,53.63 15.076,52.449 C14.73,51.773 14.787,50.679 15.421,45.811 C15.839,42.605 16.334,38.744 16.522,37.23 C16.71,35.716 17.075,33.166 17.333,31.563 C17.592,29.96 18.171,26.11 18.619,23.007 C19.563,16.473 19.974,15.584 22.757,14.06 C23.118,13.863 23.399,13.745 23.698,13.767 z" fill="#FF0000" id="path4595-9"/>
    <path d="M44.99,8.19 C48.204,8.204 51.874,8.249 55.985,8.325 L70.676,8.597 L71.285,9.394 C71.62,9.832 72.039,10.367 72.217,10.582 C72.956,11.473 72.467,12.282 69.709,14.723 C68.15,16.102 66.331,17.577 65.667,18.001 L64.459,18.772 L48.505,18.739 C39.73,18.72 32.043,18.587 31.422,18.441 C30.802,18.295 29.947,17.763 29.523,17.259 C29.099,16.756 28.222,15.761 27.575,15.048 C26.272,13.615 25.617,12.639 25.6,12.107 C25.584,11.635 27.812,9.426 28.846,8.887 C29.815,8.383 35.348,8.148 44.99,8.19 z" fill="#FF0000" fill-opacity="0.157" id="path3765-20"/>
  </g>
</svg>
